<?xml version="1.0" encoding="UTF-8"?>
<svg version="1.1" xmlns="http://www.w3.org/2000/svg" width="165" height="228">
<path d="M0 0 C-1.2981117 14.7779688 -2.75505565 29.53229425 -4.34765625 44.28125 C-4.56671111 46.32050451 -4.78565716 48.35977072 -5.00450134 50.39904785 C-5.45797007 54.62081339 -5.91270845 58.84243956 -6.3684082 63.06396484 C-6.95140592 68.46571153 -7.53115011 73.86780181 -8.10997868 79.26999664 C-8.5590929 83.45828901 -9.0098808 87.64639993 -9.46117973 91.8344574 C-9.67578692 93.82786055 -9.88988082 95.82131903 -10.10344124 97.81483459 C-10.40067509 100.58702933 -10.70016172 103.35897174 -11.00024414 106.13085938 C-11.08701416 106.94434341 -11.17378418 107.75782745 -11.26318359 108.59596252 C-11.71635474 112.75862494 -12.26217263 116.87559828 -13 121 C-24.74221524 117.54803982 -36.23105904 113.44355839 -47.75512695 109.33447266 C-50.22517286 108.45479503 -52.69650866 107.57881992 -55.16796875 106.703125 C-55.92619431 106.43131409 -56.68441986 106.15950317 -57.46562195 105.87945557 C-61.14197082 104.48958596 -61.14197082 104.48958596 -65 104 C-65.20996109 104.55328979 -65.41992218 105.10657959 -65.63624573 105.67663574 C-67.85464431 111.52015292 -70.07873614 117.3614814 -72.3059082 123.20166016 C-73.13251762 125.37136934 -73.95775185 127.54160302 -74.78149414 129.71240234 C-91.62715364 174.09482682 -91.62715364 174.09482682 -107.3359375 181.94921875 C-110.97819725 183.38582854 -114.09753491 183.85273717 -118 184 C-119.01488672 180.95533983 -119.01429389 179.6206605 -118.67141724 176.51031494 C-118.5241922 175.13096771 -118.5241922 175.13096771 -118.37399292 173.72375488 C-118.20264328 172.21355774 -118.20264328 172.21355774 -118.02783203 170.67285156 C-117.9125415 169.61076477 -117.79725098 168.54867798 -117.6784668 167.45440674 C-117.2945318 163.93242613 -116.90124393 160.41155641 -116.5078125 156.890625 C-116.23919735 154.44551402 -115.97112804 152.00034302 -115.70358276 149.55511475 C-114.99632735 143.10615396 -114.28099728 136.65811226 -113.56420898 130.21020508 C-112.98148199 124.95594461 -112.40446029 119.70106522 -111.8277607 114.44614029 C-111.13969651 108.17742361 -110.44913341 101.90898328 -109.7578125 95.640625 C-109.62608768 94.44580757 -109.49436287 93.25099014 -109.35864639 92.01996613 C-108.98407468 88.62807119 -108.60782725 85.2363668 -108.23095703 81.84472656 C-108.1207724 80.84602539 -108.01058777 79.84732422 -107.89706421 78.81835938 C-107.34469928 73.8644403 -106.73898318 68.92964631 -106 64 C-99.96746409 64.60627729 -94.67054569 66.33298464 -88.98046875 68.37890625 C-87.57079582 68.87619484 -87.57079582 68.87619484 -86.13264465 69.38352966 C-83.14871909 70.43706217 -80.16795844 71.49920261 -77.1875 72.5625 C-74.18878771 73.62816999 -71.18943925 74.6919581 -68.188797 75.75218201 C-66.32566586 76.41089271 -64.46371695 77.07295862 -62.60307312 77.73866272 C-61.76492569 78.03574631 -60.92677826 78.3328299 -60.06323242 78.63891602 C-59.3248967 78.9023732 -58.58656097 79.16583038 -57.82585144 79.43727112 C-55.99988611 80.09817658 -55.99988611 80.09817658 -54 80 C-53.6282666 79.04037354 -53.2565332 78.08074707 -52.87353516 77.09204102 C-49.52022188 68.43900259 -46.15680125 59.78997952 -42.78216553 51.14523315 C-41.3302742 47.42346471 -39.8818921 43.70055453 -38.45214844 39.97021484 C-37.14485536 36.55946801 -35.8239421 33.1543101 -34.5 29.75 C-34.1282666 28.76588135 -33.7565332 27.7817627 -33.37353516 26.76782227 C-29.21854646 16.17975206 -22.84345852 7.50411873 -12.3125 2.6875 C-8.03381504 0.88634843 -4.6798965 0 0 0 Z " fill="#2C6134" transform="translate(143,23)"/>
<path d="M0 0 C0.32167883 21.86292645 -0.41210529 43.43839694 -2.12242532 65.23053956 C-2.42922526 69.16796128 -2.72308312 73.10635633 -3.01908875 77.04460144 C-3.51559708 83.624097 -4.0220692 90.20276461 -4.53491211 96.78100586 C-5.12473992 104.34840379 -5.69793974 111.91692868 -6.26270229 119.48623544 C-6.81265072 126.85158681 -7.37438733 134.21599489 -7.9413662 141.58005333 C-8.179977 144.68191963 -8.41453624 147.78405087 -8.64565468 150.88648415 C-8.91768717 154.53116383 -9.20012863 158.17489801 -9.49026108 161.81818008 C-9.64322646 163.76881181 -9.78616656 165.72022185 -9.92866516 167.67164612 C-11.0985773 182.05790945 -14.01319906 196.76175033 -25 207 C-40.75455526 220.30259407 -61.69630245 219.98031477 -81.2890625 221.7265625 C-82.12953503 221.80195629 -82.97000755 221.87735008 -83.83594894 221.95502853 C-88.28309109 222.35378827 -92.73051831 222.74916396 -97.17822266 223.14160156 C-101.69629137 223.54090996 -106.2132198 223.95186263 -110.72999001 224.36556435 C-114.27313439 224.68787881 -117.817027 225.00132569 -121.36115646 225.312603 C-123.02349957 225.46006373 -124.68557157 225.61062407 -126.34730911 225.76475906 C-139.25151333 226.95703737 -152.04408121 227.1749728 -165 227 C-164.47546996 219.8255055 -163.95069425 212.65102899 -163.42578125 205.4765625 C-163.34448849 204.36538496 -163.26319572 203.25420742 -163.17943954 202.10935783 C-162.19129156 188.604511 -161.20100186 175.09982469 -160.20629883 161.59545898 C-160.11497649 160.35550895 -160.02365416 159.11555891 -159.92956448 157.83803463 C-159.56136133 152.83902941 -159.1931335 147.84002603 -158.82467461 142.84103966 C-157.80748386 129.03828394 -156.79713427 115.23512014 -155.81007385 101.43017578 C-155.42453336 96.0408884 -155.03271842 90.65206536 -154.63825893 85.26342392 C-154.38930109 81.85778224 -154.14374034 78.4519781 -153.90689087 75.04547119 C-151.46548285 40.14078973 -151.46548285 40.14078973 -143 27 C-142.4225 26.0925 -141.845 25.185 -141.25 24.25 C-126.77550483 9.77550483 -109.03085571 8.74471397 -89.79296875 7.08984375 C-87.8205413 6.91619834 -85.84815525 6.74208218 -83.87580872 6.56752014 C-78.7011377 6.11089379 -73.52590142 5.66101269 -68.3505249 5.21246338 C-64.15113898 4.8474086 -59.95216862 4.47770582 -55.75321484 4.10771847 C-43.83669982 3.05775405 -31.92014527 2.00805076 -20 1 C-18.0592308 0.83553879 -18.0592308 0.83553879 -16.07925415 0.66775513 C-14.94748749 0.57573822 -13.81572083 0.48372131 -12.6496582 0.38891602 C-11.7102388 0.31214127 -10.7708194 0.23536652 -9.80293274 0.15626526 C-6.53142437 -0.02612339 -3.27603444 -0.00962328 0 0 Z M-19.1401825 11.28352356 C-19.90663589 11.34650131 -20.67308929 11.40947906 -21.46276855 11.47436523 C-22.28418335 11.54445801 -23.10559814 11.61455078 -23.9519043 11.68676758 C-24.83243973 11.75997726 -25.71297516 11.83318695 -26.62019348 11.90861511 C-29.52179813 12.15090231 -32.42303367 12.39727321 -35.32421875 12.64453125 C-36.3199824 12.7290473 -37.31574604 12.81356335 -38.34168434 12.90064049 C-43.61306605 13.34841233 -48.88415087 13.79951786 -54.1550293 14.25317383 C-59.57646528 14.71907928 -64.998828 15.17309367 -70.42149639 15.62439442 C-74.61134252 15.97536451 -78.80037133 16.33544294 -82.98923683 16.69791222 C-84.98664279 16.86915093 -86.98434348 17.03698966 -88.98233604 17.20124245 C-113.26499067 19.18824701 -113.26499067 19.18824701 -132.953125 32.51171875 C-142.04824238 43.56818778 -142.34971677 57.20090851 -143.32861328 70.89868164 C-143.44659807 72.48476078 -143.56513344 74.07079904 -143.68417358 75.65679932 C-144.00369513 79.93466393 -144.31554426 84.21305633 -144.62593699 88.49159169 C-144.95246123 92.97441474 -145.28605799 97.45671153 -145.61886597 101.93907166 C-146.24716279 110.41576367 -146.86903933 118.89291397 -147.48862922 127.37024635 C-148.19444092 137.02254676 -148.90787073 146.67427961 -149.62173867 156.32598698 C-150.67204883 170.53007232 -151.71967419 184.73435646 -152.75976944 198.93919373 C-152.8725294 200.47878324 -152.98540828 202.01836404 -153.09841156 203.55793571 C-153.25193622 205.65021536 -153.40499083 207.74252882 -153.55789185 209.83485413 C-153.64378633 211.00821351 -153.72968082 212.1815729 -153.81817818 213.39048862 C-153.95095713 215.19378747 -153.95095713 215.19378747 -154 217 C-141.48578433 216.4105769 -129.01786176 215.58231699 -116.5390625 214.4765625 C-114.8485844 214.32820903 -113.15810379 214.17988408 -111.46762085 214.03158569 C-107.96337091 213.72315953 -104.4593996 213.41175555 -100.95556641 213.09863281 C-96.50213707 212.70127158 -92.04777446 212.31561678 -87.59308815 211.93264198 C-84.11608151 211.63168881 -80.63984861 211.32242604 -77.16376877 211.01096725 C-75.52245765 210.86526424 -73.88088139 210.72251193 -72.23903275 210.58299637 C-49.25077958 208.85978935 -49.25077958 208.85978935 -30.64453125 196.34375 C-24.97868934 188.8305753 -21.72951285 182.16171156 -20.94335938 172.7668457 C-20.86660728 171.95270108 -20.78985519 171.13855646 -20.71077728 170.29974079 C-20.45721562 167.53433669 -20.2257195 164.76781226 -20 162 C-19.91807404 161.00302975 -19.83614807 160.00605949 -19.7517395 158.97887802 C-19.09723344 150.89895284 -18.49970031 142.81506729 -17.90625 134.73046875 C-17.71234103 132.11662668 -17.51820383 129.50280153 -17.32385254 126.88899231 C-16.91852075 121.43208003 -16.51538055 115.97500959 -16.11376953 110.51782227 C-15.65605236 104.29840412 -15.19558695 98.0791947 -14.73343325 91.86010474 C-14.28163893 85.78032449 -13.83122568 79.70044296 -13.3815155 73.62050819 C-13.19360209 71.08027809 -13.00547094 68.54006408 -12.8170929 65.99986839 C-11.45955927 47.67186789 -10.20000049 29.33887545 -9 11 C-12.39753762 10.97803726 -15.75410937 11.00025502 -19.1401825 11.28352356 Z " fill="#34663C" transform="translate(165,1)"/>
<path d="M0 0 C5.93666585 2.71390439 10.16760393 7.21446757 12.61328125 13.3125 C13.27654532 19.97959599 13.68632167 26.69451321 9.61328125 32.3125 C5.45884888 37.29781884 0.62152925 40.68163108 -5.84375 41.69921875 C-11.8320389 41.96597816 -16.52357617 40.87115154 -21.38671875 37.3125 C-26.82075588 32.32526148 -29.35565914 27.34808786 -29.76171875 19.9375 C-29.59659001 14.15799396 -27.70057305 9.73372573 -23.703125 5.55078125 C-16.62910862 -0.73216233 -9.39750716 -2.70697424 0 0 Z " fill="#2F6236" transform="translate(109.38671875,153.6875)"/>
<path d="M0 0 C5.86047892 5.2157111 8.88644468 10.38368533 9.4375 18.25 C9.26829623 24.51053963 6.76035567 30.36044764 2.21484375 34.70703125 C-4.24036239 39.4627776 -10.24408209 39.67999789 -18 39 C-24.70862184 37.25331073 -28.54465131 32.82268102 -32 27 C-33.94024225 21.17927325 -34.10296983 14.8952958 -31.90625 9.12890625 C-28.33774503 2.74166198 -24.84770066 -0.12347071 -18.0625 -2.75 C-11.54657156 -3.53980951 -5.73248904 -3.44407026 0 0 Z " fill="#2E6236" transform="translate(78,38)"/>
</svg>
